<svg width="36" height="36" viewBox="0 0 36 36" fill="none" xmlns="http://www.w3.org/2000/svg">
<path fill-rule="evenodd" clip-rule="evenodd" d="M35.9999 18C35.9999 20.8737 35.4175 23.5901 34.3817 26H21.4053C23.8014 22.2281 26.2702 17.6606 26.2702 13C26.2702 7.00236 22.3184 1.95335 16.945 0.453392C18.0661 0.156712 19.2334 0 20.4323 0C29.0301 0 35.9999 8.05888 35.9999 18ZM22.3783 13C22.3783 8.02944 18.4577 4 13.6215 4C7.1506 4 4.86475 12.5071 4.86475 18C4.86475 27.9411 11.8346 36 20.4323 36C25.0429 36 29.1854 33.6825 32.0359 30H13.6215C13.9638 29.5514 14.3223 29.0891 14.6905 28.6142C18.1124 24.2012 22.3783 18.6997 22.3783 13Z" fill="#7859CF"/>
</svg>
